<?xml version="1.0" encoding="utf-8"?>
<!-- Generator: Adobe Illustrator 28.2.0, SVG Export Plug-In . SVG Version: 6.00 Build 0)  -->
<svg version="1.1" id="Calque_1" xmlns="http://www.w3.org/2000/svg" xmlns:xlink="http://www.w3.org/1999/xlink" x="0px" y="0px"
	 viewBox="0 0 1080 1080" style="enable-background:new 0 0 1080 1080;" xml:space="preserve">
<style type="text/css">
	.st0{fill:#FFFFFF;}
</style>
<g>
	<g>
		<path class="st0" d="M752.5,408.8c-17.8-17.8-39.6-26.8-64.7-26.8c-25.1,0-46.9,9-64.7,26.8c-4.1,4.1-7.7,8.5-11,13.1
			c0.7,1,1.3,1.9,1.9,2.9c4.2,6.6,7.3,13.8,9.3,21.2l1.1,4.4l0.5,2.1l0.7-2c3.2-8.7,8.3-16.7,15.3-23.6
			c12.9-12.8,28.6-19.3,46.8-19.3c18.1,0,33.9,6.5,46.7,19.3c12.8,12.9,19.3,28.6,19.3,46.8s-6.5,33.9-19.3,46.7
			c-12.9,12.8-28.6,19.3-46.8,19.3c-16.7,0-32.5-7.2-46.7-21.4c-6.7-6.7-11.8-14.9-15.2-24.4l-0.1-0.3l-1.1,4.4l-0.8,2.7
			c-2.1,7.7-5.2,15-9.1,21.7c-0.5,0.8-0.9,1.5-1.4,2.3c2.9,4.2,6.2,8,9.8,11.6c19.2,19.2,41,28.9,64.7,28.9c25.1,0,46.9-9,64.7-26.8
			c17.8-17.8,26.8-39.6,26.8-64.7C779.3,448.4,770.4,426.6,752.5,408.8"/>
		<path class="st0" d="M477.8,429.7c1.3-1.6,2.7-3,4.7-4.9c12.1-11.4,26.8-17.2,43.9-17.2c13.7,0,26.2,3.9,37.1,11.7
			c4.3,3.1,8.1,6.6,11.3,10.4H477.8z M614.8,452.4l-0.5-2.1l-1.1-4.4c-1.9-7.4-5.1-14.5-9.3-21.2c-0.6-1-1.3-1.9-1.9-2.9
			c-5.1-7.4-11.8-14.3-19.7-20.5c-16.3-12.9-35.2-19.4-56-19.4c-24.9,0-46.5,8.9-64.2,26.5c-2.3,2.3-3.4,3.6-5.3,5.9l-0.2,0.2
			c0,0,0.1,0.1,0.1,0.1c3,3.8,5.7,7.8,8.1,11.9c1.2,2.1,2.2,4,3.1,5.9c1.8,3.9,3.4,8,4.6,12.2c0.4,1.4,0.8,2.8,1.2,4.5
			c0.4,1.7,0.8,3.5,1.1,5.3l130.8-0.1l3.6,0l4.8,0l1.3,0L614.8,452.4z"/>
	</g>
	<polygon class="st0" points="477.9,550.3 478.1,550.5 477.9,550.3 	"/>
	<g>
		<path class="st0" d="M615,492h-5.6h-20.6l-1.5,4.6c-4.3,12.9-12,23.5-23,31.5c-11.2,8.2-23.9,12.6-37.9,13.1
			c-16.6-0.4-31-6.2-43-17.1l-7.1-6.5l0,34.1l1.2,0.8c14.3,10.1,29,14.4,49,14.4c20.5,0,39-6.4,55.2-18.9
			c8.7-6.7,15.9-14.6,21.5-23.6c0.5-0.8,1-1.5,1.4-2.3c3.9-6.7,7-14,9.1-21.7l0.8-2.7l1.1-4.4l0.4-1.4H615z"/>
	</g>
	<polygon class="st0" points="478.2,550.6 478.2,550.6 478.1,550.5 	"/>
	<g>
		<path class="st0" d="M464.8,467.9c-0.1-4.5-0.6-9-1.4-13.3c-0.3-1.8-0.7-3.5-1.1-5.3c-0.4-1.7-0.8-3.1-1.2-4.5
			c-1.2-4.2-2.8-8.4-4.6-12.2c-0.9-1.9-1.9-3.8-3.1-5.9c-2.3-4.1-5-8.1-8.1-11.9c0,0-0.1-0.1-0.1-0.1c-0.4-0.5-0.7-0.9-1.1-1.3
			c-1.2-1.4-2.3-2.7-3.5-4c-0.8-0.9-1.7-1.8-2.6-2.7c-7.5-7.5-15.9-13.6-24.9-18l-0.2-0.1c-9.4-4.2-19.5-6.3-30.3-6.3
			c-20.7,0-39,7.8-54.2,23.1c-1.4,1.4-2.6,2.7-3.7,3.9c-15.7,17.7-23.8,39.2-24.1,64.2v75.9h25.2v-75.8c0.3-18,6.1-33.5,17.2-46.1
			c11.1-12.5,24.1-18.6,39.6-18.6c15.5,0,28.6,6.1,39.8,18.7l1.6,1.4c1.2,1.4,2.3,2.8,3.3,4.3c3.5,4.9,6.3,10.1,8.2,15.7
			c2.4,6.9,3.7,14.4,3.7,22.4l0,60.7l25.2,19.7v-34.2l0.3,0.3l0-46.4v0l0,0L464.8,467.9z"/>
	</g>
	<polygon class="st0" points="463.9,551.6 464.1,551.8 464.2,551.9 464.2,517.9 463.9,517.6 	"/>
	<polygon class="st0" points="349.2,604.9 331.1,629 329.1,629 311.4,604.8 311.4,645.2 300.9,645.2 300.9,589.7 313,589.7 
		330.3,613.5 347.7,589.7 359.7,589.7 359.7,645.2 349.2,645.2 	"/>
	<path class="st0" d="M448,617.7c-0.2,14.4-9,28.7-28.5,28.7c-19.5,0-28.6-14-28.6-28.6c0-14.6,9.4-29.3,28.6-29.3
		C438.7,588.5,448.2,603.2,448,617.7 M401.3,617.9c0.2,9.1,5.2,18.9,18.2,18.9c13.1,0,18-9.8,18.2-19c0.2-9.4-5.1-19.8-18.2-19.8
		C406.4,598,401.1,608.5,401.3,617.9"/>
	<polygon class="st0" points="493,599.1 475.4,599.1 475.4,589.6 521.1,589.6 521.1,599.1 503.5,599.1 503.5,645.1 493,645.1 	"/>
	<path class="st0" d="M608.1,617.7c-0.2,14.4-9,28.7-28.5,28.7c-19.5,0-28.6-14-28.6-28.6c0-14.6,9.4-29.3,28.6-29.3
		C598.8,588.5,608.3,603.2,608.1,617.7 M561.4,617.9c0.2,9.1,5.2,18.9,18.2,18.9c13.1,0,18-9.8,18.2-19c0.2-9.4-5.1-19.8-18.2-19.8
		C566.6,598,561.2,608.5,561.4,617.9"/>
	<path class="st0" d="M695.9,645.1h-12.5l-16.2-18.6h-10.1v18.6h-10.5v-55.6c8.8,0,17.6,0.1,26.4,0.1c13.1,0.1,20,8.8,20,18.4
		c0,7.6-3.5,15.3-14,17.5l16.8,19V645.1z M657.2,599.3v17.8h15.9c6.7,0,9.5-4.4,9.5-8.9c0-4.4-2.9-8.9-9.5-8.9H657.2z"/>
	<path class="st0" d="M768.2,603c-1.9-3.2-7.1-6.2-13.2-6.2c-7.8,0-11.5,3.3-11.5,7.4c0,4.8,5.7,6.2,12.4,7
		c11.6,1.4,22.4,4.4,22.4,17.7c0,12.4-10.9,17.7-23.3,17.7c-11.3,0-20.1-3.5-24.2-13.6l8.7-4.5c2.5,6.1,8.9,8.8,15.6,8.8
		c6.6,0,12.8-2.3,12.8-8.3c0-5.2-5.5-7.4-12.8-8.2c-11.3-1.3-21.8-4.4-21.8-16.8c0-11.4,11.3-16.1,21.5-16.2c8.6,0,17.6,2.5,21.8,11
		L768.2,603z"/>
	<path class="st0" d="M318.5,696.5v-14.2c0-3.5-1.8-6.7-5.4-6.7c-3.5,0-5.6,3.2-5.6,6.7v14.2h-6.5V670h6.1l0.5,3.2
		c1.4-2.7,4.5-3.6,7-3.6c3.2,0,6.3,1.3,7.8,4.9c2.4-3.8,5.4-4.8,8.9-4.8c7.5,0,11.2,4.6,11.2,12.6v14.3h-6.5v-14.3
		c0-3.5-1.4-6.4-5-6.4s-5.7,3.1-5.7,6.5v14.2H318.5z"/>
	<path class="st0" d="M419,683.3c0,7.6-5.2,13.8-13.8,13.8c-8.6,0-13.7-6.2-13.7-13.8c0-7.6,5.3-13.8,13.7-13.8
		C413.5,669.5,419,675.7,419,683.3 M398,683.3c0,4,2.4,7.8,7.2,7.8c4.8,0,7.2-3.8,7.2-7.8c0-4-2.8-7.8-7.2-7.8
		C400.5,675.5,398,679.3,398,683.3"/>
	<path class="st0" d="M474.5,670l0.5,3.1c2-3.3,4.8-3.8,7.5-3.8c2.7,0,5.4,1.1,6.8,2.5l-3,5.7c-1.3-1.1-2.6-1.7-4.7-1.7
		c-3.4,0-6.6,1.8-6.6,6.7v14h-6.5V670H474.5z"/>
	<path class="st0" d="M562,683.3c0,7.6-5.2,13.8-13.8,13.8c-8.6,0-13.7-6.2-13.7-13.8c0-7.6,5.3-13.8,13.7-13.8
		C556.6,669.5,562,675.7,562,683.3 M541,683.3c0,4,2.4,7.8,7.2,7.8c4.8,0,7.2-3.8,7.2-7.8c0-4-2.8-7.8-7.2-7.8
		C543.5,675.5,541,679.3,541,683.3"/>
	<path class="st0" d="M634.2,693.1c-3.1,3-6.3,4.2-10.2,4.2c-7.7,0-14.1-4.6-14.1-14c0-9.4,6.4-14,14.1-14c3.8,0,6.7,1.1,9.6,3.9
		l-4.1,4.4c-1.6-1.4-3.5-2.1-5.3-2.1c-4.4,0-7.6,3.2-7.6,7.8c0,5,3.4,7.7,7.5,7.7c2.1,0,4.2-0.6,5.8-2.2L634.2,693.1z"/>
	<path class="st0" d="M704.6,693.1c-3.1,3-6.3,4.2-10.2,4.2c-7.7,0-14.1-4.6-14.1-14c0-9.4,6.4-14,14.1-14c3.8,0,6.7,1.1,9.6,3.9
		l-4.1,4.4c-1.6-1.4-3.5-2.1-5.3-2.1c-4.4,0-7.6,3.2-7.6,7.8c0,5,3.4,7.7,7.5,7.7c2.1,0,4.2-0.6,5.8-2.2L704.6,693.1z"/>
	<path class="st0" d="M778.3,683.3c0,7.6-5.2,13.8-13.8,13.8c-8.6,0-13.7-6.2-13.7-13.8c0-7.6,5.3-13.8,13.7-13.8
		C772.9,669.5,778.3,675.7,778.3,683.3 M757.3,683.3c0,4,2.4,7.8,7.2,7.8c4.8,0,7.2-3.8,7.2-7.8c0-4-2.8-7.8-7.2-7.8
		C759.8,675.5,757.3,679.3,757.3,683.3"/>
</g>
</svg>
